<?xml version="1.0" encoding="utf-8"?>
<!-- Generator: Adobe Illustrator 27.1.0, SVG Export Plug-In . SVG Version: 6.00 Build 0)  -->
<svg version="1.1" xmlns="http://www.w3.org/2000/svg" xmlns:xlink="http://www.w3.org/1999/xlink" x="0px" y="0px"
	 viewBox="0 0 884.7 659.4" style="enable-background:new 0 0 884.7 659.4;" xml:space="preserve">
<style type="text/css">
	.st0{display:none;}
	.st1{display:inline;fill:#FFFFFF;}
	.st2{display:inline;}
	.st3{fill:none;stroke:#CCCCCC;}
	.st4{fill:#D3602F;}
	.st5{fill:#32DC4B;}
	.st6{fill:#656666;}
	.st7{font-family:'Arial-BoldMT';}
	.st8{font-size:15px;}
	.st9{enable-background:new    ;}
	.st10{fill:none;stroke:#000000;stroke-width:2;stroke-linecap:round;}
	.st11{fill:none;stroke:#000000;stroke-width:2;}
	.st12{font-family:'ArialMT';}
	.st13{font-size:13px;}
</style>
<g id="Layer_1" class="st0">
	<rect id="background" y="-11.1" class="st1" width="884.7" height="659.4"/>
	<g id="grid" class="st2">
		<rect y="-11.1" class="st3" width="884.7" height="659.4"/>
	</g>
</g>
<g id="Layer_3">
	<g id="Reprobados_00000135680138501758725030000002845627446494327205_">
		<rect x="51" y="507" class="st4" width="105.3" height="121.3"/>
		<rect x="157.3" y="469.6" class="st4" width="105.3" height="158.7"/>
		<rect x="263.6" y="353" class="st4" width="105.3" height="275.3"/>
		<rect x="369.9" y="409" class="st4" width="105.3" height="219.3"/>
		<rect x="476.1" y="427.6" class="st4" width="105.3" height="200.7"/>
		<rect x="582.4" y="530.3" class="st4" width="105.3" height="98"/>
		<rect x="688.7" y="390.3" class="st4" width="105.3" height="238"/>
	</g>
</g>
<g id="Layer_4">
	<g id="Aprobados">
		<rect x="51" y="493" class="st5" width="105.3" height="14"/>
		<rect x="157.3" y="423" class="st5" width="105.3" height="46.7"/>
		<rect x="263.6" y="301.6" class="st5" width="105.3" height="51.3"/>
		<rect x="369.9" y="315.6" class="st5" width="105.3" height="93.3"/>
		<rect x="476.1" y="171" class="st5" width="105.3" height="256.7"/>
		<rect x="582.4" y="348.3" class="st5" width="105.3" height="182"/>
		<rect x="688.7" y="68.3" class="st5" width="105.3" height="322"/>
	</g>
</g>
<g id="Layer_5">
	<text transform="matrix(1 0 0 1 802.9423 624.3159)" class="st6 st7 st8">Semestre</text>
	<text transform="matrix(1 0 0 1 21.3963 22.0743)" class="st9"><tspan x="0" y="0" class="st6 st7 st8">Cantidad de</tspan><tspan x="0" y="18" class="st6 st7 st8">alumnos inscritos</tspan></text>
	<text transform="matrix(1 0 0 1 271.2009 22.0707)" class="st6 st7 st8">Aprobados</text>
	<text transform="matrix(1 0 0 1 401.4138 22.0705)" class="st6 st7 st8">Reprobados</text>
	<rect x="249" y="8.5" class="st5" width="15.2" height="15.2"/>
	<rect x="379.3" y="8.5" class="st4" width="15.2" height="15.2"/>
</g>
<g id="Layer_2">
	<path class="st10" d="M50,628.3h745"/>
	<line class="st11" x1="103.6" y1="628.3" x2="103.6" y2="634.3"/>
	<text transform="matrix(1 0 0 1 83.14 647.1256)" class="st12 st13">2021-2</text>
	<line class="st11" x1="209.9" y1="628.3" x2="209.9" y2="634.3"/>
	<text transform="matrix(1 0 0 1 189.3524 647.2817)" class="st12 st13">2022-1</text>
	<line class="st11" x1="316.2" y1="628.3" x2="316.2" y2="634.3"/>
	<text transform="matrix(1 0 0 1 295.7942 647.1259)" class="st12 st13">2022-2</text>
	<line class="st11" x1="422.5" y1="628.3" x2="422.5" y2="634.3"/>
	<text transform="matrix(1 0 0 1 401.7585 647.2815)" class="st12 st13">2023-1</text>
	<line class="st11" x1="528.8" y1="628.3" x2="528.8" y2="634.3"/>
	<text transform="matrix(1 0 0 1 508.6222 647.1254)" class="st12 st13">2023-2</text>
	<line class="st11" x1="635.1" y1="628.3" x2="635.1" y2="634.3"/>
	<text transform="matrix(1 0 0 1 614.7727 647.1249)" class="st12 st13">2024-1</text>
	<line class="st11" x1="741.4" y1="628.3" x2="741.4" y2="634.3"/>
	<text transform="matrix(1 0 0 1 720.848 647.1249)" class="st12 st13">2024-2</text>
	<path class="st10" d="M50,628.3v-560"/>
	<line class="st11" x1="50" y1="628.3" x2="44" y2="628.3"/>
	<text transform="matrix(1 0 0 1 35.4385 631.6723)" class="st12 st13">0</text>
	<line class="st11" x1="50" y1="581.6" x2="44" y2="581.6"/>
	<text transform="matrix(1 0 0 1 28.8616 586.1931)" class="st12 st13">10</text>
	<line class="st11" x1="50" y1="535" x2="44" y2="535"/>
	<text transform="matrix(1 0 0 1 28.8342 539.2253)" class="st12 st13">20</text>
	<line class="st11" x1="50" y1="488.3" x2="44" y2="488.3"/>
	<text transform="matrix(1 0 0 1 29.0173 492.3316)" class="st12 st13">30</text>
	<line class="st11" x1="50" y1="441.6" x2="44" y2="441.6"/>
	<text transform="matrix(1 0 0 1 28.8618 445.8643)" class="st12 st13">40</text>
	<line class="st11" x1="50" y1="395" x2="44" y2="395"/>
	<text transform="matrix(1 0 0 1 29.0324 399.0271)" class="st12 st13">50</text>
	<line class="st11" x1="50" y1="348.3" x2="44" y2="348.3"/>
	<text transform="matrix(1 0 0 1 28.9816 352.4113)" class="st12 st13">60</text>
	<line class="st11" x1="50" y1="301.6" x2="44" y2="301.6"/>
	<text transform="matrix(1 0 0 1 28.8907 305.8355)" class="st12 st13">70</text>
	<line class="st11" x1="50" y1="255" x2="44" y2="255"/>
	<text transform="matrix(1 0 0 1 28.9837 259.0758)" class="st12 st13">80</text>
	<line class="st11" x1="50" y1="208.3" x2="44" y2="208.3"/>
	<text transform="matrix(1 0 0 1 28.9051 212.4878)" class="st12 st13">90</text>
	<line class="st11" x1="50" y1="161.6" x2="44" y2="161.6"/>
	<text transform="matrix(1 0 0 1 21.3963 166.2853)" class="st12 st13">100</text>
	<line class="st11" x1="50" y1="115" x2="44" y2="115"/>
	<text transform="matrix(1 0 0 1 22.2917 119.8847)" class="st12 st13">110</text>
	<line class="st11" x1="50" y1="68.3" x2="44" y2="68.3"/>
	<text transform="matrix(1 0 0 1 21.3963 73.4209)" class="st12 st13">120</text>
</g>
<g id="Layer_6" class="st0">
</g>
</svg>
